<svg xmlns="http://www.w3.org/2000/svg" xmlns:xlink="http://www.w3.org/1999/xlink" version="1.1" x="0px" y="0px" viewBox="0 0 1024 1280" style="enable-background:new 0 0 1024 1024;" xml:space="preserve"><path d="M269.8,501c-0.4,0.4-0.7,0.8-1,1.3c-1.5,1.8-2.9,3.6-4.4,5.4c-0.3,0.4-0.6,0.8-0.9,1.2  c-0.1,0.1-0.1,0.1-0.2,0.2c0,0,0,0,0,0c-0.2,0.2-0.4,0.5-0.5,0.7c-2.3,3.1-4.6,6.2-6.8,9.4c-9.7,13.8-18.3,28.3-25.8,43.3  c-1.9,3.7-3.6,7.5-5.3,11.3c-0.8,1.8-2,3.8-2.5,5.7c1.2-4.2-0.4,1.1-1,2.5c-3.1,7.8-6,15.7-8.5,23.7c-5.1,16.3-9,32.9-11.5,49.8  c-0.2,1.3-0.4,2.7-0.6,4c0,0.2-0.1,0.4-0.1,0.5c0.1-0.5,0.2-1.5,0.2-1.8c-0.5,2-0.5,4.3-0.7,6.4c-0.5,4.3-0.8,8.6-1.1,13  c-0.5,7.9-0.8,15.7-0.8,23.6c0,10.8-9.2,19.9-20,19.9H72c-10.8,0-20-9-20-19.9c0-10.7,0.4-21.2,1.1-31.9  c6.7-95.5,43.1-186.3,103.5-260.4c3.1-3.9,6.4-7.7,9.6-11.4c4.7,4.7,9.5,9.5,14.2,14.2c4.7,4.7,9.4,9.4,14.1,14.1  c15.7,15.7,31.3,31.3,47,47c4.7,4.7,9.4,9.4,14.1,14.1c1.6,1.6,3.2,3.2,4.8,4.8C263.6,494.8,266.7,497.9,269.8,501z"/><path d="M482,387V241.8c-33,2.1-65.7,7.8-97.4,16.9c-64.8,18.7-125.3,51.9-176,96.3c2.6,2.6,5.2,5.2,7.8,7.8  l20.6,20.6c15.6,15.7,31.3,31.3,47,47c4.7,4.7,9.5,9.5,14.2,14.2c4.7,4.7,9.4,9.4,14.2,14.2c1.4-1.2,2.8-2.3,4.2-3.5  c0.8-0.7,1.6-1.3,2.4-1.9c0.2-0.1,0.8-0.6,1.3-1c0,0,0,0,0.1,0c0,0,0.1-0.1,0.1-0.1c0,0,0,0,0,0c0.1-0.1,0.2-0.2,0.3-0.3  c0.9-0.7,2.3-1.7,2.6-2c1.6-1.2,3.3-2.4,5-3.6c3.6-2.5,7.2-5,10.9-7.4c6.9-4.5,14-8.8,21.3-12.8c7.3-4,14.7-7.8,22.3-11.3  c1.9-0.9,3.8-1.7,5.7-2.6c0.4-0.2,0.8-0.4,1.2-0.6c0,0,0,0,0,0c0.2-0.1,0.3-0.1,0.5-0.2c4.1-1.7,8.3-3.3,12.4-4.8  c15.9-5.8,32.3-10.4,48.9-13.7c3.9-0.8,7.9-1.5,11.9-2.2c2.1-0.3,4.3-0.7,6.4-1c1.2-0.2,1.7-0.3,1.7-0.3c0.6,0,1.3-0.1,1.8-0.2  c2.9-0.3,5.8-0.6,8.6-0.9C482,387.8,482,387.4,482,387z M469.6,389.6c0.5-0.1,1-0.2,1.5-0.2C470.7,389.4,470,389.5,469.6,389.6z"/><path d="M667.3,267.7c-40.2-14.6-82.6-23.3-125.3-26V387c0,0.4,0,0.9,0,1.3c2.9,0.3,5.8,0.5,8.7,0.9  c1.1,0.1,2.2,0.3,3.2,0.4c0.1,0,0.1,0,0.2,0c1.9,0.3,3.8,0.6,5.7,0.9c4.5,0.7,9,1.5,13.5,2.4c8.3,1.7,16.6,3.7,24.8,6  c8.1,2.3,16.1,4.9,24,7.8c3.7,1.4,7.3,2.8,11,4.3c0.2,0.1,0.6,0.2,1,0.4c0,0,0.1,0.3,0.1,0.3c0.1,0,0.2,0.3,0.3,0.3h0  c0,0,0-0.2,0-0.2c0.1,0,0.1,0.1,0.1,0.1c0,0,0.1,0.1,0.1,0.1c0,0,0,0,0,0l0-0.2c0,0,0-0.1,0-0.1c2.4,1,4.8,2.1,7.1,3.2  c15.1,7,29.6,15,43.4,24.2c3.2,2.1,6.4,4.3,9.6,6.5c1.7,1.2,3.4,2.4,5,3.6c0.5,0.4,2,1.5,3,2.2c0,0,0.1,0.1,0.1,0.1  c0,0,0.1,0.1,0.1,0.1c0,0,0,0,0,0c0.2,0.1,0.3,0.2,0.4,0.3c0.1,0,0.1,0.1,0.2,0.1c0,0,0.1,0.1,0.1,0.1c2.7,2,5.3,4.1,7.8,6.3  c3.1-3.1,6.2-6.2,9.3-9.4c1.6-1.6,3.2-3.2,4.8-4.8c4.7-4.7,9.3-9.3,14-14c15.7-15.7,31.4-31.4,47.1-47.2l28.1-28.1  C772,317.3,721.9,287.5,667.3,267.7z M768.8,368.2c0.1,0.1,0.1,0.1,0.2,0.2C769,368.3,769,368.3,768.8,368.2  C768.9,368.3,768.8,368.2,768.8,368.2z"/><path d="M972,700.8v0.5c0,10.8-9.2,19.7-20,19.7H845.8c-10.8,0-20-9-20-19.9c0-7.9-0.3-15.6-0.8-23.5  c-0.3-4.3-0.7-8.7-1.2-13c-0.2-2.1-0.3-4.4-0.8-6.5c1,5.1-0.3-1.7-0.4-2.7c-1.3-8.5-2.9-16.9-4.8-25.2c-3.8-16.4-8.9-32.6-15.2-48.3  c-0.5-1.2-1-2.3-1.4-3.5c0,0,0-0.1-0.1-0.2c-0.7-1.5-1.3-3-2-4.6c-1.7-3.8-3.5-7.6-5.3-11.3c-3.7-7.4-7.7-14.7-11.9-21.9  c-4.2-7.1-8.7-14.1-13.5-20.8c-2.5-3.6-5.1-7.1-7.8-10.6c-0.2-0.2-0.3-0.4-0.3-0.5c0,0,0,0,0,0c0,0,0,0,0-0.1  c-0.3-0.3-0.5-0.6-0.7-0.9c-1.3-1.6-2.6-3.2-3.9-4.8c-0.5-0.6-1-1.2-1.5-1.9c4.7-4.7,9.5-9.5,14.2-14.2c4.7-4.7,9.4-9.4,14.1-14  c15.7-15.7,31.4-31.4,47.1-47.1c4.7-4.7,9.4-9.4,14.1-14.1c2.2-2.2,4.3-4.3,6.5-6.5c2.5-2.5,5.1-5.1,7.6-7.6  c10.4,11.8,20.2,24.1,29.4,36.9C942.4,511.6,971.8,605.9,972,700.8z"/><path d="M571.3,643.5c-0.3-0.3-0.6-0.7-1-1c-0.3-0.3-0.6-0.5-0.9-0.8c-8.2-7.7-17.5-13.6-27.4-17.4V479.8  c0-15.7-13.8-30.7-30-30c-16.3,0.7-30,13.2-30,30v144.4c-2.2,0.8-4.4,1.8-6.5,2.8c-29.5,13.8-48.7,47.6-45.6,80  c3.4,34.7,27.1,65,61.5,73.7c34,8.6,68.9-5.4,89-33.8C602.6,715.2,597.2,671,571.3,643.5z"/><text x="0" y="1039" fill="#000000" font-size="5px" font-weight="bold" font-family="'Helvetica Neue', Helvetica, Arial-Unicode, Arial, Sans-serif">Created by shashank singh</text><text x="0" y="1044" fill="#000000" font-size="5px" font-weight="bold" font-family="'Helvetica Neue', Helvetica, Arial-Unicode, Arial, Sans-serif">from the Noun Project</text></svg>